<svg width="35" height="41" viewBox="0 0 35 41" fill="none" xmlns="http://www.w3.org/2000/svg">
<g filter="url(#filter0_dd_21_25)">
<path d="M30.4646 7.55264V24.0318C30.4646 26.9193 28.1166 29.2672 25.2292 29.2672C23.8418 29.2634 22.5124 28.7106 21.5314 27.7296C20.5504 26.7486 19.9976 25.4191 19.9937 24.0318C19.9937 21.1589 22.3562 18.811 25.2292 18.811C26.4542 18.811 27.5479 19.2339 28.4375 19.9339V11.2568L15.0062 15.0776V26.8464C15.0024 28.2337 14.4496 29.5631 13.4686 30.5441C12.4876 31.5251 11.1582 32.078 9.77082 32.0818C6.88332 32.0818 4.5354 29.7339 4.5354 26.8464C4.5354 23.9735 6.88332 21.6256 9.77082 21.6256C10.9812 21.6256 12.075 22.0485 12.9646 22.7339V9.84222C12.9646 7.69847 14.2625 6.03597 16.3187 5.48181L24.7479 3.17764C26.4542 2.71097 27.8979 2.87139 28.9187 3.65889C29.9541 4.43181 30.4646 5.74431 30.4646 7.55264Z" fill="black"/>
</g>
<defs>
<filter id="filter0_dd_21_25" x="-4" y="0" width="43" height="43" filterUnits="userSpaceOnUse" color-interpolation-filters="sRGB">
<feFlood flood-opacity="0" result="BackgroundImageFix"/>
<feColorMatrix in="SourceAlpha" type="matrix" values="0 0 0 0 0 0 0 0 0 0 0 0 0 0 0 0 0 0 127 0" result="hardAlpha"/>
<feOffset dy="4"/>
<feGaussianBlur stdDeviation="2"/>
<feComposite in2="hardAlpha" operator="out"/>
<feColorMatrix type="matrix" values="0 0 0 0 0 0 0 0 0 0 0 0 0 0 0 0 0 0 0.25 0"/>
<feBlend mode="normal" in2="BackgroundImageFix" result="effect1_dropShadow_21_25"/>
<feColorMatrix in="SourceAlpha" type="matrix" values="0 0 0 0 0 0 0 0 0 0 0 0 0 0 0 0 0 0 127 0" result="hardAlpha"/>
<feOffset dy="4"/>
<feGaussianBlur stdDeviation="2"/>
<feComposite in2="hardAlpha" operator="out"/>
<feColorMatrix type="matrix" values="0 0 0 0 0 0 0 0 0 0 0 0 0 0 0 0 0 0 0.25 0"/>
<feBlend mode="normal" in2="effect1_dropShadow_21_25" result="effect2_dropShadow_21_25"/>
<feBlend mode="normal" in="SourceGraphic" in2="effect2_dropShadow_21_25" result="shape"/>
</filter>
</defs>
</svg>
